<region>
sample=../Samples/Trombones/trombones-stc-rr2-e2.wav
lokey=e2
hikey=f2
pitch_keycenter=e2
pan=-5

<region>
sample=../Samples/Trombones/trombones-stc-rr2-g2.wav
lokey=f#2
hikey=g#2
pitch_keycenter=g2
volume=-1
pan=-15

<region>
sample=../Samples/Trombones/trombones-stc-rr2-a#2.wav
lokey=a2
hikey=b2
pitch_keycenter=a#2
volume=-1

<region>
sample=../Samples/Trombones/trombones-stc-rr2-c#3.wav
lokey=c3
hikey=d3
pitch_keycenter=c#3
volume=1
pan=-20

<region>
sample=../Samples/Trombones/trombones-stc-rr2-e3.wav
lokey=d#3
hikey=f3
pitch_keycenter=e3
volume=-1
pan=10

<region>
sample=../Samples/Trombones/trombones-stc-rr2-g3.wav
lokey=f#3
hikey=g#3
pitch_keycenter=g3
volume=1

<region>
sample=../Samples/Trombones/trombones-stc-rr2-a#3.wav
lokey=a3
hikey=b3
pitch_keycenter=a#3
volume=1

<region>
sample=../Samples/Trombones/trombones-stc-rr2-c#4.wav
lokey=c4
hikey=d4
pitch_keycenter=c#4

<region>
sample=../Samples/Trombones/trombones-stc-rr2-e4.wav
lokey=d#4
hikey=f4
pitch_keycenter=e4
volume=1

<region>
sample=../Samples/Trombones/trombones-stc-rr2-g4.wav
lokey=f#4
hikey=g#4
pitch_keycenter=g4
volume=1

<region>
sample=../Samples/Trombones/trombones-stc-rr2-a#4.wav
lokey=a4
hikey=b4
pitch_keycenter=a#4
volume=2

<region>
sample=../Samples/Trombones/trombones-stc-rr2-c#5.wav
lokey=c5
hikey=d5
pitch_keycenter=c#5
volume=-2

<region>
sample=../Samples/Trombones/trombones-stc-rr2-e5.wav
lokey=d#5
hikey=f5
pitch_keycenter=e5
